{
  "accessors": [
    {
      "bufferView": 2,
      "componentType": 5126,
      "count": 11889,
      "max": [
        6.967219829559326,
        2.2770750522613525,
        5.965385913848877
      ],
      "min": [
        -29.11094093322754,
        -2.34230899810791,
        -14.090804100036621
      ],
      "type": "VEC3"
    },
    {
      "bufferView": 2,
      "byteOffset": 142668,
      "componentType": 5126,
      "count": 11889,
      "max": [
        0.9999995231628418,
        0.9999992847442627,
        0.9999955892562866
      ],
      "min": [
        -0.9999995231628418,
        -0.9999992847442627,
        -0.9999960660934448
      ],
      "type": "VEC3"
    },
    {
      "bufferView": 1,
      "componentType": 5126,
      "count": 11889,
      "max": [
        0.9965819716453552,
        0.9958919882774353
      ],
      "min": [
        0.0035500000230968,
        0.0039059999398887157
      ],
      "type": "VEC2"
    },
    {
      "bufferView": 0,
      "componentType": 5125,
      "count": 27288,
      "type": "SCALAR"
    },
    {
      "bufferView": 2,
      "byteOffset": 285336,
      "componentType": 5126,
      "count": 254,
      "max": [
        5.869939804077148,
        2.0752580165863037,
        4.012160778045654
      ],
      "min": [
        -15.003780364990234,
        1.0411280393600464,
        -0.08615999668836594
      ],
      "type": "VEC3"
    },
    {
      "bufferView": 2,
      "byteOffset": 288384,
      "componentType": 5126,
      "count": 254,
      "max": [
        0.36468929052352905,
        0.999972939491272,
        0.9997486472129822
      ],
      "min": [
        -0.36468929052352905,
        -0.999972939491272,
        -0.9997914433479309
      ],
      "type": "VEC3"
    },
    {
      "bufferView": 1,
      "byteOffset": 95112,
      "componentType": 5126,
      "count": 254,
      "max": [
        0.6425780057907104,
        0.5434569716453552
      ],
      "min": [
        0.07775899767875671,
        0.4179689884185791
      ],
      "type": "VEC2"
    },
    {
      "bufferView": 0,
      "byteOffset": 109152,
      "componentType": 5125,
      "count": 714,
      "type": "SCALAR"
    },
    {
      "bufferView": 2,
      "byteOffset": 291432,
      "componentType": 5126,
      "count": 2050,
      "max": [
        -12.138660430908203,
        1.5221120119094849,
        4.111285209655762
      ],
      "min": [
        -27.55392074584961,
        -1.466737985610962,
        -1.1685839891433716
      ],
      "type": "VEC3"
    },
    {
      "bufferView": 2,
      "byteOffset": 316032,
      "componentType": 5126,
      "count": 2050,
      "max": [
        0.9999991655349731,
        0.9999991655349731,
        0.9998906850814819
      ],
      "min": [
        -0.9999991655349731,
        -0.9999991655349731,
        -0.9997914433479309
      ],
      "type": "VEC3"
    },
    {
      "bufferView": 1,
      "byteOffset": 97144,
      "componentType": 5126,
      "count": 2050,
      "max": [
        0.9902340173721313,
        0.9922029972076416
      ],
      "min": [
        0.000699999975040555,
        0.0019529999699443579
      ],
      "type": "VEC2"
    },
    {
      "bufferView": 0,
      "byteOffset": 112008,
      "componentType": 5125,
      "count": 8430,
      "type": "SCALAR"
    },
    {
      "bufferView": 2,
      "byteOffset": 340632,
      "componentType": 5126,
      "count": 8,
      "max": [
        -21.41473960876465,
        0.4624359905719757,
        3.865093946456909
      ],
      "min": [
        -25.5168399810791,
        -0.2968499958515167,
        3.8009750843048096
      ],
      "type": "VEC3"
    },
    {
      "bufferView": 2,
      "byteOffset": 340728,
      "componentType": 5126,
      "count": 8,
      "max": [
        0.001000048709101975,
        0.02240108884871006,
        0.9997486472129822
      ],
      "min": [
        -0.14780160784721375,
        0.020200219005346298,
        0.9887687563896179
      ],
      "type": "VEC3"
    },
    {
      "bufferView": 1,
      "byteOffset": 113544,
      "componentType": 5126,
      "count": 8,
      "max": [
        0.7382810115814209,
        0.7550050020217896
      ],
      "min": [
        0.7089840173721313,
        0.4375
      ],
      "type": "VEC2"
    },
    {
      "bufferView": 0,
      "byteOffset": 145728,
      "componentType": 5125,
      "count": 24,
      "type": "SCALAR"
    },
    {
      "bufferView": 2,
      "byteOffset": 340824,
      "componentType": 5126,
      "count": 407,
      "max": [
        -9.725659370422363,
        1.302240014076233,
        5.491207122802734
      ],
      "min": [
        -21.267419815063477,
        -1.0956050157546997,
        -4.004652976989746
      ],
      "type": "VEC3"
    },
    {
      "bufferView": 2,
      "byteOffset": 345708,
      "componentType": 5126,
      "count": 407,
      "max": [
        0.9459992051124573,
        0.9786549210548401,
        0.917288601398468
      ],
      "min": [
        -0.9298208355903625,
        -0.9819775223731995,
        -0.42251044511795044
      ],
      "type": "VEC3"
    },
    {
      "bufferView": 1,
      "byteOffset": 113608,
      "componentType": 5126,
      "count": 407,
      "max": [
        0.48413100838661194,
        0.8712159991264343
      ],
      "min": [
        0.0035000001080334187,
        0.2973630130290985
      ],
      "type": "VEC2"
    },
    {
      "bufferView": 0,
      "byteOffset": 145824,
      "componentType": 5125,
      "count": 672,
      "type": "SCALAR"
    },
    {
      "bufferView": 2,
      "byteOffset": 350592,
      "componentType": 5126,
      "count": 7361,
      "max": [
        6.7259202003479,
        2.9752049446105957,
        6.2596659660339355
      ],
      "min": [
        -21.483320236206055,
        -2.9932339191436768,
        -4.9996161460876465
      ],
      "type": "VEC3"
    },
    {
      "bufferView": 2,
      "byteOffset": 438924,
      "componentType": 5126,
      "count": 7361,
      "max": [
        0.9999995231628418,
        0.9999955892562866,
        0.999998927116394
      ],
      "min": [
        -0.9999991655349731,
        -0.9999955892562866,
        -0.999998927116394
      ],
      "type": "VEC3"
    },
    {
      "bufferView": 1,
      "byteOffset": 116864,
      "componentType": 5126,
      "count": 7361,
      "max": [
        0.9980469942092896,
        0.9979709982872009
      ],
      "min": [
        0.00107999995816499,
        0.002440999960526824
      ],
      "type": "VEC2"
    },
    {
      "bufferView": 0,
      "byteOffset": 148512,
      "componentType": 5125,
      "count": 15216,
      "type": "SCALAR"
    },
    {
      "bufferView": 2,
      "byteOffset": 527256,
      "componentType": 5126,
      "count": 45,
      "max": [
        3.2435801029205322,
        1.0405770540237427,
        6.084446907043457
      ],
      "min": [
        -18.841720581054688,
        -0.8008430004119873,
        5.513719081878662
      ],
      "type": "VEC3"
    },
    {
      "bufferView": 2,
      "byteOffset": 527796,
      "componentType": 5126,
      "count": 45,
      "max": [
        0.8629611134529114,
        0.1749938577413559,
        0.5050914287567139
      ],
      "min": [
        -0.9999991655349731,
        -0.174992635846138,
        -0.5051772594451904
      ],
      "type": "VEC3"
    },
    {
      "bufferView": 1,
      "byteOffset": 175752,
      "componentType": 5126,
      "count": 45,
      "max": [
        0.6621090173721313,
        0.8284909725189209
      ],
      "min": [
        0.4387210011482239,
        0.776856005191803
      ],
      "type": "VEC2"
    },
    {
      "bufferView": 0,
      "byteOffset": 209376,
      "componentType": 5125,
      "count": 96,
      "type": "SCALAR"
    },
    {
      "bufferView": 2,
      "byteOffset": 528336,
      "componentType": 5126,
      "count": 6686,
      "max": [
        3.657599925994873,
        5.109662055969238,
        1.7926830053329468
      ],
      "min": [
        0.8636000156402588,
        1.9957129955291748,
        -0.37877199053764343
      ],
      "type": "VEC3"
    },
    {
      "bufferView": 2,
      "byteOffset": 608568,
      "componentType": 5126,
      "count": 6686,
      "max": [
        0.9999991655349731,
        0.9999433755874634,
        0.9996456503868103
      ],
      "min": [
        -0.9999991655349731,
        -0.9998915195465088,
        -0.9999562501907349
      ],
      "type": "VEC3"
    },
    {
      "bufferView": 1,
      "byteOffset": 176112,
      "componentType": 5126,
      "count": 6686,
      "max": [
        0.9907230138778687,
        0.9988710284233093
      ],
      "min": [
        0.004139000084251165,
        0.0029299999587237835
      ],
      "type": "VEC2"
    },
    {
      "bufferView": 0,
      "byteOffset": 209760,
      "componentType": 5125,
      "count": 17703,
      "type": "SCALAR"
    }
  ],
  "asset": {
    "extras": {
      "author": "MaxNeru (https://sketchfab.com/MaxNeru)",
      "license": "CC-BY-4.0 (http://creativecommons.org/licenses/by/4.0/)",
      "source": "https://sketchfab.com/3d-models/nrg-pistol-4543434b590e4d87881e3f9f8340b4b0",
      "title": "NRG PISTOL"
    },
    "generator": "Sketchfab-15.1.0",
    "version": "2.0"
  },
  "bufferViews": [
    {
      "buffer": 0,
      "byteLength": 280572,
      "name": "floatBufferViews",
      "target": 34963
    },
    {
      "buffer": 0,
      "byteLength": 229600,
      "byteOffset": 280572,
      "byteStride": 8,
      "name": "floatBufferViews",
      "target": 34962
    },
    {
      "buffer": 0,
      "byteLength": 688800,
      "byteOffset": 510172,
      "byteStride": 12,
      "name": "floatBufferViews",
      "target": 34962
    }
  ],
  "buffers": [
    {
      "byteLength": 1198972,
      "uri": "scene.bin"
    }
  ],
  "extensionsUsed": [
    "KHR_materials_specular"
  ],
  "images": [
    {
      "uri": "textures/m2o_weapon_nrg_pistol_camo_baseColor.png"
    },
    {
      "uri": "textures/m2o_weapon_nrg_pistol_mag_camo_baseColor.png"
    },
    {
      "uri": "textures/mo_cosmetic_suctioncup_baseColor.png"
    }
  ],
  "materials": [
    {
      "doubleSided": true,
      "extensions": {
        "KHR_materials_specular": {
          "specularColorFactor": [
            1.0,
            1.0,
            1.0
          ],
          "specularFactor": 0.0
        }
      },
      "name": "m2o_weapon_nrg_pistol_camo",
      "pbrMetallicRoughness": {
        "baseColorTexture": {
          "index": 0
        },
        "metallicFactor": 0.0,
        "roughnessFactor": 0.6
      }
    },
    {
      "doubleSided": true,
      "name": "m2o_weapon_nrg_pistol_gunpaint_left_camo",
      "pbrMetallicRoughness": {
        "baseColorTexture": {
          "index": 0
        },
        "metallicFactor": 0.0,
        "roughnessFactor": 0.6
      }
    },
    {
      "doubleSided": true,
      "extensions": {
        "KHR_materials_specular": {
          "specularColorFactor": [
            1.0,
            1.0,
            1.0
          ],
          "specularFactor": 0.0
        }
      },
      "name": "m2o_weapon_nrg_pistol_mag_camo",
      "pbrMetallicRoughness": {
        "baseColorTexture": {
          "index": 1
        },
        "metallicFactor": 0.0,
        "roughnessFactor": 0.16222832726087721
      }
    },
    {
      "doubleSided": true,
      "name": "m2o_weapon_nrg_pistol_mag_gunpaint_top_camo",
      "pbrMetallicRoughness": {
        "baseColorTexture": {
          "index": 1
        },
        "metallicFactor": 0.0,
        "roughnessFactor": 0.6
      }
    },
    {
      "doubleSided": true,
      "name": "m2o_weapon_nrg_pistol_tint2_camo",
      "pbrMetallicRoughness": {
        "baseColorTexture": {
          "index": 1
        },
        "metallicFactor": 0.0,
        "roughnessFactor": 0.6
      }
    },
    {
      "doubleSided": true,
      "extensions": {
        "KHR_materials_specular": {
          "specularColorFactor": [
            1.0,
            1.0,
            1.0
          ],
          "specularFactor": 0.0
        }
      },
      "name": "m2o_weapon_nrg_pistol_tint_camo",
      "pbrMetallicRoughness": {
        "baseColorTexture": {
          "index": 1
        },
        "metallicFactor": 0.0,
        "roughnessFactor": 0.6
      }
    },
    {
      "doubleSided": true,
      "name": "m2o_weapon_spas12_tritvial_green",
      "pbrMetallicRoughness": {
        "metallicFactor": 0.0,
        "roughnessFactor": 0.6
      }
    },
    {
      "doubleSided": true,
      "extensions": {
        "KHR_materials_specular": {
          "specularColorFactor": [
            1.0,
            1.0,
            1.0
          ],
          "specularFactor": 0.0
        }
      },
      "name": "mo_cosmetic_suctioncup",
      "pbrMetallicRoughness": {
        "baseColorTexture": {
          "index": 2
        },
        "metallicFactor": 0.0,
        "roughnessFactor": 0.6
      }
    }
  ],
  "meshes": [
    {
      "name": "Object_0",
      "primitives": [
        {
          "attributes": {
            "NORMAL": 1,
            "POSITION": 0,
            "TEXCOORD_0": 2
          },
          "indices": 3,
          "material": 0,
          "mode": 4
        }
      ]
    },
    {
      "name": "Object_1",
      "primitives": [
        {
          "attributes": {
            "NORMAL": 5,
            "POSITION": 4,
            "TEXCOORD_0": 6
          },
          "indices": 7,
          "material": 1,
          "mode": 4
        }
      ]
    },
    {
      "name": "Object_2",
      "primitives": [
        {
          "attributes": {
            "NORMAL": 9,
            "POSITION": 8,
            "TEXCOORD_0": 10
          },
          "indices": 11,
          "material": 2,
          "mode": 4
        }
      ]
    },
    {
      "name": "Object_3",
      "primitives": [
        {
          "attributes": {
            "NORMAL": 13,
            "POSITION": 12,
            "TEXCOORD_0": 14
          },
          "indices": 15,
          "material": 3,
          "mode": 4
        }
      ]
    },
    {
      "name": "Object_4",
      "primitives": [
        {
          "attributes": {
            "NORMAL": 17,
            "POSITION": 16,
            "TEXCOORD_0": 18
          },
          "indices": 19,
          "material": 4,
          "mode": 4
        }
      ]
    },
    {
      "name": "Object_5",
      "primitives": [
        {
          "attributes": {
            "NORMAL": 21,
            "POSITION": 20,
            "TEXCOORD_0": 22
          },
          "indices": 23,
          "material": 5,
          "mode": 4
        }
      ]
    },
    {
      "name": "Object_6",
      "primitives": [
        {
          "attributes": {
            "NORMAL": 25,
            "POSITION": 24,
            "TEXCOORD_0": 26
          },
          "indices": 27,
          "material": 6,
          "mode": 4
        }
      ]
    },
    {
      "name": "Object_7",
      "primitives": [
        {
          "attributes": {
            "NORMAL": 29,
            "POSITION": 28,
            "TEXCOORD_0": 30
          },
          "indices": 31,
          "material": 7,
          "mode": 4
        }
      ]
    }
  ],
  "nodes": [
    {
      "children": [
        1
      ],
      "matrix": [
        1.0,
        0.0,
        0.0,
        0.0,
        0.0,
        2.220446049250313e-16,
        -1.0,
        0.0,
        0.0,
        1.0,
        2.220446049250313e-16,
        0.0,
        0.0,
        0.0,
        0.0,
        1.0
      ],
      "name": "Sketchfab_model"
    },
    {
      "children": [
        2,
        3,
        4,
        5,
        6,
        7,
        8,
        9
      ],
      "name": "untitled.obj.cleaner.materialmerger.gles"
    },
    {
      "mesh": 0,
      "name": "Object_2"
    },
    {
      "mesh": 1,
      "name": "Object_3"
    },
    {
      "mesh": 2,
      "name": "Object_4"
    },
    {
      "mesh": 3,
      "name": "Object_5"
    },
    {
      "mesh": 4,
      "name": "Object_6"
    },
    {
      "mesh": 5,
      "name": "Object_7"
    },
    {
      "mesh": 6,
      "name": "Object_8"
    },
    {
      "mesh": 7,
      "name": "Object_9"
    }
  ],
  "samplers": [
    {
      "magFilter": 9729,
      "minFilter": 9987,
      "wrapS": 10497,
      "wrapT": 10497
    }
  ],
  "scene": 0,
  "scenes": [
    {
      "name": "Sketchfab_Scene",
      "nodes": [
        0
      ]
    }
  ],
  "textures": [
    {
      "sampler": 0,
      "source": 0
    },
    {
      "sampler": 0,
      "source": 1
    },
    {
      "sampler": 0,
      "source": 2
    }
  ]
}
